%
M48
M72
T01C0.03150
T02C0.03200
T03C0.03543
T04C0.03937
T05C0.04000
T06C0.04724
T07C0.05200
T08C0.05512
%
T01
X217119Y79031
X227119Y79031
X237119Y79031
T02
X232158Y58087
X222158Y58087
X229520Y35953
X229520Y21953
X193930Y127850
X163930Y127850
T03
X146449Y126866
X106449Y126866
X92630Y126787
X52630Y126787
T04
X16528Y61236
X32079Y74543
X16134Y85646
X32119Y90291
X138339Y76118
X138300Y56433
X258654Y101000
X258654Y125803
T05
X238814Y121320
X221014Y121320
X221014Y95720
X238814Y95720
X253693Y43677
X253693Y33677
T06
X229520Y21866
X232276Y58087
X249205Y70685
X213378Y109661
X211410Y127772
X155898Y119110
X131882Y116354
X123615Y109661
X92512Y126984
X118103Y138795
X52355Y126984
X138182Y56512
X266922Y115567
T07
X201918Y99516
X178418Y107516
X154918Y99516
X154918Y51516
X201918Y51516
T08
X138182Y76197
X31882Y74622
X31882Y89976
M30
