G75*
%MOIN*%
%OFA0B0*%
%FSLAX25Y25*%
%IPPOS*%
%LPD*%
%AMOC8*
5,1,8,0,0,1.08239X$1,22.5*
%
%ADD10C,0.05200*%
%ADD11R,0.04799X0.08799*%
%ADD12R,0.14173X0.08661*%
%ADD13C,0.10000*%
%ADD14C,0.07800*%
%ADD15C,0.07000*%
%ADD16C,0.08600*%
%ADD17R,0.11811X0.04724*%
%ADD18C,0.06000*%
%ADD19OC8,0.06300*%
%ADD20C,0.06300*%
%ADD21C,0.02400*%
%ADD22C,0.07087*%
%ADD23C,0.10000*%
%ADD24C,0.08268*%
D10*
X0161330Y0127850D02*
X0166530Y0127850D01*
X0191330Y0127850D02*
X0196530Y0127850D01*
D11*
X0031965Y0116555D03*
X0022867Y0116555D03*
X0013768Y0116555D03*
D12*
X0022867Y0140957D03*
D13*
X0032119Y0090291D03*
X0016134Y0085646D03*
X0032079Y0074543D03*
X0016528Y0061236D03*
X0138300Y0056433D03*
X0138339Y0076118D03*
X0258654Y0101000D03*
X0258654Y0125803D03*
D14*
X0201918Y0103416D02*
X0201918Y0095616D01*
X0178418Y0103616D02*
X0178418Y0111416D01*
X0154918Y0103416D02*
X0154918Y0095616D01*
X0154918Y0055416D02*
X0154918Y0047616D01*
X0201918Y0047616D02*
X0201918Y0055416D01*
D15*
X0217119Y0075531D02*
X0217119Y0082531D01*
X0227119Y0082531D02*
X0227119Y0075531D01*
X0237119Y0075531D02*
X0237119Y0082531D01*
D16*
X0146449Y0126866D03*
X0106449Y0126866D03*
X0092630Y0126787D03*
X0052630Y0126787D03*
D17*
X0052276Y0086157D03*
X0052276Y0078283D03*
X0052276Y0070409D03*
X0052276Y0062535D03*
X0052276Y0054661D03*
X0052276Y0046787D03*
X0052276Y0038913D03*
X0052276Y0031039D03*
X0116843Y0031039D03*
X0116843Y0038913D03*
X0116843Y0046787D03*
X0116843Y0054661D03*
X0116843Y0062535D03*
X0116843Y0070409D03*
X0116843Y0078283D03*
X0116843Y0086157D03*
D18*
X0221014Y0092720D02*
X0221014Y0098720D01*
X0238814Y0098720D02*
X0238814Y0092720D01*
X0238814Y0118320D02*
X0238814Y0124320D01*
X0221014Y0124320D02*
X0221014Y0118320D01*
X0250693Y0043677D02*
X0256693Y0043677D01*
X0256693Y0033677D02*
X0250693Y0033677D01*
D19*
X0229520Y0021953D03*
X0222158Y0058087D03*
D20*
X0232158Y0058087D03*
X0229520Y0035953D03*
D21*
X0181969Y0035953D01*
X0170859Y0047063D01*
X0170859Y0083575D01*
X0154918Y0099516D01*
X0138339Y0082937D01*
X0138339Y0076118D01*
X0116843Y0070409D02*
X0116725Y0070291D01*
X0103142Y0070291D01*
X0098812Y0074622D01*
X0098812Y0085252D01*
X0111016Y0097457D01*
X0124796Y0097457D01*
X0131882Y0104543D01*
X0131882Y0116354D01*
X0121371Y0126866D01*
X0106449Y0126866D01*
X0092630Y0126787D02*
X0084560Y0134858D01*
X0050386Y0134858D01*
X0046056Y0130528D01*
X0046056Y0118323D01*
X0033457Y0105724D01*
X0026764Y0105724D01*
X0022867Y0109622D01*
X0022867Y0116555D01*
X0031965Y0116555D02*
X0031965Y0123130D01*
X0047630Y0138795D01*
X0118103Y0138795D01*
X0118497Y0138795D01*
X0156347Y0100945D01*
X0154918Y0099516D01*
X0156347Y0100945D02*
X0163930Y0108528D01*
X0163930Y0127850D01*
X0155898Y0119110D02*
X0154205Y0119110D01*
X0146449Y0126866D01*
X0155898Y0119110D02*
X0197237Y0119110D01*
X0206686Y0109661D01*
X0213378Y0109661D01*
X0222040Y0109661D01*
X0227119Y0104583D01*
X0227119Y0079031D01*
X0237119Y0079031D02*
X0237119Y0079465D01*
X0245662Y0088008D01*
X0245662Y0114472D01*
X0238814Y0121320D01*
X0244567Y0115567D01*
X0266922Y0115567D01*
X0268497Y0117142D01*
X0268497Y0132890D01*
X0256686Y0144701D01*
X0047237Y0144701D01*
X0029520Y0126984D01*
X0020465Y0126984D01*
X0013768Y0120287D01*
X0013768Y0116555D01*
X0052001Y0126157D02*
X0052630Y0126787D01*
X0052001Y0126157D02*
X0052001Y0086433D01*
X0052276Y0086157D01*
X0052276Y0070409D02*
X0052158Y0070291D01*
X0044875Y0070291D01*
X0042119Y0067535D01*
X0042119Y0035646D01*
X0046725Y0031039D01*
X0052276Y0031039D01*
X0052276Y0054661D02*
X0052552Y0054937D01*
X0062591Y0054937D01*
X0117315Y0109661D01*
X0123615Y0109661D01*
X0123221Y0110055D01*
X0123221Y0119110D01*
X0139756Y0135646D01*
X0207867Y0135646D01*
X0211410Y0132102D01*
X0211410Y0127772D01*
X0214562Y0127772D01*
X0221014Y0121320D01*
X0193930Y0127850D02*
X0193930Y0107504D01*
X0201918Y0099516D01*
X0201961Y0099472D01*
X0201961Y0090370D01*
X0213300Y0079031D01*
X0217119Y0079031D01*
X0237119Y0079031D02*
X0237119Y0065843D01*
X0240150Y0062811D01*
X0240150Y0045094D01*
X0251567Y0033677D01*
X0246056Y0033677D01*
X0243300Y0030921D01*
X0222158Y0052063D01*
X0222158Y0058087D01*
X0232158Y0058087D02*
X0232158Y0061118D01*
X0243300Y0072260D01*
X0243300Y0078165D01*
X0250780Y0085646D01*
X0250780Y0121472D01*
X0231489Y0140764D01*
X0133851Y0140764D01*
X0092630Y0099543D01*
X0063378Y0070291D01*
X0052394Y0070291D01*
X0052276Y0070409D01*
X0092630Y0099543D02*
X0092630Y0126787D01*
X0105623Y0062535D02*
X0100780Y0057693D01*
X0100780Y0024622D01*
X0113772Y0011630D01*
X0249993Y0011630D01*
X0252749Y0014386D01*
X0253142Y0014386D01*
X0265741Y0026984D01*
X0265741Y0059661D01*
X0254717Y0070685D01*
X0249205Y0070685D01*
X0244481Y0065961D01*
X0244481Y0048244D01*
X0249205Y0043520D01*
X0253536Y0043520D01*
X0253693Y0043677D01*
X0253693Y0033677D02*
X0251567Y0033677D01*
X0243300Y0030921D02*
X0234245Y0021866D01*
X0229607Y0021866D01*
X0229520Y0021953D01*
X0222127Y0029346D01*
X0149993Y0029346D01*
X0138575Y0040764D01*
X0138575Y0057339D01*
X0138300Y0056433D01*
X0116843Y0062535D02*
X0105623Y0062535D01*
X0138575Y0040764D02*
X0138575Y0039976D01*
X0129638Y0031039D01*
X0116843Y0031039D01*
D22*
X0138182Y0056512D03*
X0123615Y0109661D03*
X0131882Y0116354D03*
X0155898Y0119110D03*
X0118103Y0138795D03*
X0092512Y0126984D03*
X0052355Y0126984D03*
X0211410Y0127772D03*
X0213378Y0109661D03*
X0266922Y0115567D03*
X0249205Y0070685D03*
X0232276Y0058087D03*
X0229520Y0021866D03*
D23*
X0046843Y0011236D02*
X0016922Y0041157D01*
X0016922Y0060843D01*
X0016528Y0061236D01*
X0018772Y0061236D01*
X0032079Y0074543D01*
X0022434Y0085646D02*
X0016134Y0085646D01*
X0022434Y0085646D02*
X0028339Y0091551D01*
X0030859Y0091551D01*
X0032119Y0090291D01*
X0043378Y0090291D01*
X0107473Y0026197D01*
X0129599Y0026197D01*
X0154918Y0051516D01*
X0178418Y0107516D02*
X0179127Y0108224D01*
X0179127Y0134858D01*
X0183064Y0138795D01*
X0244875Y0138795D01*
X0257867Y0125803D01*
X0258654Y0125803D01*
X0258654Y0101000D02*
X0258654Y0078953D01*
X0266134Y0071472D01*
X0266134Y0071079D01*
X0266922Y0070291D01*
X0266922Y0022260D01*
X0255898Y0011236D01*
X0046843Y0011236D01*
D24*
X0031882Y0074622D03*
X0031882Y0089976D03*
X0138182Y0076197D03*
M02*
