G75*
%MOIN*%
%OFA0B0*%
%FSLAX25Y25*%
%IPPOS*%
%LPD*%
%AMOC8*
5,1,8,0,0,1.08239X$1,22.5*
%
%ADD10C,0.00000*%
%ADD11C,0.00600*%
%ADD12C,0.00500*%
%ADD13R,0.02000X0.08000*%
%ADD14R,0.02500X0.02000*%
%ADD15C,0.00800*%
%ADD16R,0.04799X0.08799*%
%ADD17R,0.14173X0.08661*%
%ADD18C,0.00400*%
%ADD19C,0.01000*%
%ADD20C,0.00700*%
%ADD21R,0.03400X0.02400*%
%ADD22C,0.02400*%
%ADD23R,0.11811X0.04724*%
%ADD24C,0.00200*%
D10*
X0006292Y0001000D02*
X0006686Y0152181D01*
X0275189Y0152181D01*
X0275583Y0001000D01*
X0006292Y0001000D01*
D11*
X0014028Y0056236D02*
X0019028Y0056236D01*
X0021528Y0058736D01*
X0021528Y0063736D01*
X0019028Y0066236D01*
X0014028Y0066236D01*
X0011528Y0063736D01*
X0011528Y0058736D01*
X0014028Y0056236D01*
X0029579Y0069543D02*
X0034579Y0069543D01*
X0037079Y0072043D01*
X0037079Y0077043D01*
X0034579Y0079543D01*
X0029579Y0079543D01*
X0027079Y0077043D01*
X0027079Y0072043D01*
X0029579Y0069543D01*
X0018634Y0080646D02*
X0013634Y0080646D01*
X0011134Y0083146D01*
X0011134Y0088146D01*
X0013634Y0090646D01*
X0018634Y0090646D01*
X0021134Y0088146D01*
X0021134Y0083146D01*
X0018634Y0080646D01*
X0027119Y0087791D02*
X0029619Y0085291D01*
X0034619Y0085291D01*
X0037119Y0087791D01*
X0037119Y0092791D01*
X0034619Y0095291D01*
X0029619Y0095291D01*
X0027119Y0092791D01*
X0027119Y0087791D01*
X0061130Y0122287D02*
X0062630Y0122287D01*
X0063130Y0122787D01*
X0082130Y0122787D01*
X0082630Y0122287D01*
X0084130Y0122287D01*
X0084190Y0122289D01*
X0084251Y0122294D01*
X0084310Y0122303D01*
X0084369Y0122316D01*
X0084428Y0122332D01*
X0084485Y0122352D01*
X0084540Y0122375D01*
X0084595Y0122402D01*
X0084647Y0122431D01*
X0084698Y0122464D01*
X0084747Y0122500D01*
X0084793Y0122538D01*
X0084837Y0122580D01*
X0084879Y0122624D01*
X0084917Y0122670D01*
X0084953Y0122719D01*
X0084986Y0122770D01*
X0085015Y0122822D01*
X0085042Y0122877D01*
X0085065Y0122932D01*
X0085085Y0122989D01*
X0085101Y0123048D01*
X0085114Y0123107D01*
X0085123Y0123166D01*
X0085128Y0123227D01*
X0085130Y0123287D01*
X0085130Y0130287D01*
X0085128Y0130347D01*
X0085123Y0130408D01*
X0085114Y0130467D01*
X0085101Y0130526D01*
X0085085Y0130585D01*
X0085065Y0130642D01*
X0085042Y0130697D01*
X0085015Y0130752D01*
X0084986Y0130804D01*
X0084953Y0130855D01*
X0084917Y0130904D01*
X0084879Y0130950D01*
X0084837Y0130994D01*
X0084793Y0131036D01*
X0084747Y0131074D01*
X0084698Y0131110D01*
X0084647Y0131143D01*
X0084595Y0131172D01*
X0084540Y0131199D01*
X0084485Y0131222D01*
X0084428Y0131242D01*
X0084369Y0131258D01*
X0084310Y0131271D01*
X0084251Y0131280D01*
X0084190Y0131285D01*
X0084130Y0131287D01*
X0082630Y0131287D01*
X0082130Y0130787D01*
X0063130Y0130787D01*
X0062630Y0131287D01*
X0061130Y0131287D01*
X0061070Y0131285D01*
X0061009Y0131280D01*
X0060950Y0131271D01*
X0060891Y0131258D01*
X0060832Y0131242D01*
X0060775Y0131222D01*
X0060720Y0131199D01*
X0060665Y0131172D01*
X0060613Y0131143D01*
X0060562Y0131110D01*
X0060513Y0131074D01*
X0060467Y0131036D01*
X0060423Y0130994D01*
X0060381Y0130950D01*
X0060343Y0130904D01*
X0060307Y0130855D01*
X0060274Y0130804D01*
X0060245Y0130752D01*
X0060218Y0130697D01*
X0060195Y0130642D01*
X0060175Y0130585D01*
X0060159Y0130526D01*
X0060146Y0130467D01*
X0060137Y0130408D01*
X0060132Y0130347D01*
X0060130Y0130287D01*
X0060130Y0123287D01*
X0060132Y0123227D01*
X0060137Y0123166D01*
X0060146Y0123107D01*
X0060159Y0123048D01*
X0060175Y0122989D01*
X0060195Y0122932D01*
X0060218Y0122877D01*
X0060245Y0122822D01*
X0060274Y0122770D01*
X0060307Y0122719D01*
X0060343Y0122670D01*
X0060381Y0122624D01*
X0060423Y0122580D01*
X0060467Y0122538D01*
X0060513Y0122500D01*
X0060562Y0122464D01*
X0060613Y0122431D01*
X0060665Y0122402D01*
X0060720Y0122375D01*
X0060775Y0122352D01*
X0060832Y0122332D01*
X0060891Y0122316D01*
X0060950Y0122303D01*
X0061009Y0122294D01*
X0061070Y0122289D01*
X0061130Y0122287D01*
X0113949Y0123366D02*
X0113949Y0130366D01*
X0113951Y0130426D01*
X0113956Y0130487D01*
X0113965Y0130546D01*
X0113978Y0130605D01*
X0113994Y0130664D01*
X0114014Y0130721D01*
X0114037Y0130776D01*
X0114064Y0130831D01*
X0114093Y0130883D01*
X0114126Y0130934D01*
X0114162Y0130983D01*
X0114200Y0131029D01*
X0114242Y0131073D01*
X0114286Y0131115D01*
X0114332Y0131153D01*
X0114381Y0131189D01*
X0114432Y0131222D01*
X0114484Y0131251D01*
X0114539Y0131278D01*
X0114594Y0131301D01*
X0114651Y0131321D01*
X0114710Y0131337D01*
X0114769Y0131350D01*
X0114828Y0131359D01*
X0114889Y0131364D01*
X0114949Y0131366D01*
X0116449Y0131366D01*
X0116949Y0130866D01*
X0135949Y0130866D01*
X0136449Y0131366D01*
X0137949Y0131366D01*
X0138009Y0131364D01*
X0138070Y0131359D01*
X0138129Y0131350D01*
X0138188Y0131337D01*
X0138247Y0131321D01*
X0138304Y0131301D01*
X0138359Y0131278D01*
X0138414Y0131251D01*
X0138466Y0131222D01*
X0138517Y0131189D01*
X0138566Y0131153D01*
X0138612Y0131115D01*
X0138656Y0131073D01*
X0138698Y0131029D01*
X0138736Y0130983D01*
X0138772Y0130934D01*
X0138805Y0130883D01*
X0138834Y0130831D01*
X0138861Y0130776D01*
X0138884Y0130721D01*
X0138904Y0130664D01*
X0138920Y0130605D01*
X0138933Y0130546D01*
X0138942Y0130487D01*
X0138947Y0130426D01*
X0138949Y0130366D01*
X0138949Y0123366D01*
X0138947Y0123306D01*
X0138942Y0123245D01*
X0138933Y0123186D01*
X0138920Y0123127D01*
X0138904Y0123068D01*
X0138884Y0123011D01*
X0138861Y0122956D01*
X0138834Y0122901D01*
X0138805Y0122849D01*
X0138772Y0122798D01*
X0138736Y0122749D01*
X0138698Y0122703D01*
X0138656Y0122659D01*
X0138612Y0122617D01*
X0138566Y0122579D01*
X0138517Y0122543D01*
X0138466Y0122510D01*
X0138414Y0122481D01*
X0138359Y0122454D01*
X0138304Y0122431D01*
X0138247Y0122411D01*
X0138188Y0122395D01*
X0138129Y0122382D01*
X0138070Y0122373D01*
X0138009Y0122368D01*
X0137949Y0122366D01*
X0136449Y0122366D01*
X0135949Y0122866D01*
X0116949Y0122866D01*
X0116449Y0122366D01*
X0114949Y0122366D01*
X0114889Y0122368D01*
X0114828Y0122373D01*
X0114769Y0122382D01*
X0114710Y0122395D01*
X0114651Y0122411D01*
X0114594Y0122431D01*
X0114539Y0122454D01*
X0114484Y0122481D01*
X0114432Y0122510D01*
X0114381Y0122543D01*
X0114332Y0122579D01*
X0114286Y0122617D01*
X0114242Y0122659D01*
X0114200Y0122703D01*
X0114162Y0122749D01*
X0114126Y0122798D01*
X0114093Y0122849D01*
X0114064Y0122901D01*
X0114037Y0122956D01*
X0114014Y0123011D01*
X0113994Y0123068D01*
X0113978Y0123127D01*
X0113965Y0123186D01*
X0113956Y0123245D01*
X0113951Y0123306D01*
X0113949Y0123366D01*
X0145918Y0117516D02*
X0210918Y0117516D01*
X0210918Y0028516D01*
X0145918Y0028516D01*
X0145918Y0117516D01*
X0169930Y0124850D02*
X0169930Y0130850D01*
X0169932Y0130910D01*
X0169937Y0130971D01*
X0169946Y0131030D01*
X0169959Y0131089D01*
X0169975Y0131148D01*
X0169995Y0131205D01*
X0170018Y0131260D01*
X0170045Y0131315D01*
X0170074Y0131367D01*
X0170107Y0131418D01*
X0170143Y0131467D01*
X0170181Y0131513D01*
X0170223Y0131557D01*
X0170267Y0131599D01*
X0170313Y0131637D01*
X0170362Y0131673D01*
X0170413Y0131706D01*
X0170465Y0131735D01*
X0170520Y0131762D01*
X0170575Y0131785D01*
X0170632Y0131805D01*
X0170691Y0131821D01*
X0170750Y0131834D01*
X0170809Y0131843D01*
X0170870Y0131848D01*
X0170930Y0131850D01*
X0186930Y0131850D01*
X0186990Y0131848D01*
X0187051Y0131843D01*
X0187110Y0131834D01*
X0187169Y0131821D01*
X0187228Y0131805D01*
X0187285Y0131785D01*
X0187340Y0131762D01*
X0187395Y0131735D01*
X0187447Y0131706D01*
X0187498Y0131673D01*
X0187547Y0131637D01*
X0187593Y0131599D01*
X0187637Y0131557D01*
X0187679Y0131513D01*
X0187717Y0131467D01*
X0187753Y0131418D01*
X0187786Y0131367D01*
X0187815Y0131315D01*
X0187842Y0131260D01*
X0187865Y0131205D01*
X0187885Y0131148D01*
X0187901Y0131089D01*
X0187914Y0131030D01*
X0187923Y0130971D01*
X0187928Y0130910D01*
X0187930Y0130850D01*
X0187930Y0124850D01*
X0187928Y0124790D01*
X0187923Y0124729D01*
X0187914Y0124670D01*
X0187901Y0124611D01*
X0187885Y0124552D01*
X0187865Y0124495D01*
X0187842Y0124440D01*
X0187815Y0124385D01*
X0187786Y0124333D01*
X0187753Y0124282D01*
X0187717Y0124233D01*
X0187679Y0124187D01*
X0187637Y0124143D01*
X0187593Y0124101D01*
X0187547Y0124063D01*
X0187498Y0124027D01*
X0187447Y0123994D01*
X0187395Y0123965D01*
X0187340Y0123938D01*
X0187285Y0123915D01*
X0187228Y0123895D01*
X0187169Y0123879D01*
X0187110Y0123866D01*
X0187051Y0123857D01*
X0186990Y0123852D01*
X0186930Y0123850D01*
X0170930Y0123850D01*
X0170870Y0123852D01*
X0170809Y0123857D01*
X0170750Y0123866D01*
X0170691Y0123879D01*
X0170632Y0123895D01*
X0170575Y0123915D01*
X0170520Y0123938D01*
X0170465Y0123965D01*
X0170413Y0123994D01*
X0170362Y0124027D01*
X0170313Y0124063D01*
X0170267Y0124101D01*
X0170223Y0124143D01*
X0170181Y0124187D01*
X0170143Y0124233D01*
X0170107Y0124282D01*
X0170074Y0124333D01*
X0170045Y0124385D01*
X0170018Y0124440D01*
X0169995Y0124495D01*
X0169975Y0124552D01*
X0169959Y0124611D01*
X0169946Y0124670D01*
X0169937Y0124729D01*
X0169932Y0124790D01*
X0169930Y0124850D01*
X0176430Y0127850D02*
X0178930Y0127850D01*
X0178930Y0125350D01*
X0178930Y0127850D02*
X0178930Y0130350D01*
X0178930Y0127850D02*
X0182930Y0130350D01*
X0182930Y0125350D01*
X0178930Y0127850D01*
X0184930Y0127850D01*
X0217914Y0117020D02*
X0217914Y0113520D01*
X0217914Y0103520D01*
X0217914Y0100020D01*
X0225914Y0096520D02*
X0226914Y0096520D01*
X0226914Y0095520D01*
X0232914Y0095520D01*
X0232914Y0096520D01*
X0233914Y0096520D01*
X0241914Y0100020D02*
X0241914Y0103520D01*
X0241914Y0113020D01*
X0241914Y0117020D01*
X0233914Y0120520D02*
X0232914Y0120520D01*
X0232914Y0121520D01*
X0226914Y0121520D01*
X0226914Y0120520D01*
X0225914Y0120520D01*
X0228914Y0108520D02*
X0228916Y0108583D01*
X0228922Y0108645D01*
X0228932Y0108707D01*
X0228945Y0108769D01*
X0228963Y0108829D01*
X0228984Y0108888D01*
X0229009Y0108946D01*
X0229038Y0109002D01*
X0229070Y0109056D01*
X0229105Y0109108D01*
X0229143Y0109157D01*
X0229185Y0109205D01*
X0229229Y0109249D01*
X0229277Y0109291D01*
X0229326Y0109329D01*
X0229378Y0109364D01*
X0229432Y0109396D01*
X0229488Y0109425D01*
X0229546Y0109450D01*
X0229605Y0109471D01*
X0229665Y0109489D01*
X0229727Y0109502D01*
X0229789Y0109512D01*
X0229851Y0109518D01*
X0229914Y0109520D01*
X0229977Y0109518D01*
X0230039Y0109512D01*
X0230101Y0109502D01*
X0230163Y0109489D01*
X0230223Y0109471D01*
X0230282Y0109450D01*
X0230340Y0109425D01*
X0230396Y0109396D01*
X0230450Y0109364D01*
X0230502Y0109329D01*
X0230551Y0109291D01*
X0230599Y0109249D01*
X0230643Y0109205D01*
X0230685Y0109157D01*
X0230723Y0109108D01*
X0230758Y0109056D01*
X0230790Y0109002D01*
X0230819Y0108946D01*
X0230844Y0108888D01*
X0230865Y0108829D01*
X0230883Y0108769D01*
X0230896Y0108707D01*
X0230906Y0108645D01*
X0230912Y0108583D01*
X0230914Y0108520D01*
X0230912Y0108457D01*
X0230906Y0108395D01*
X0230896Y0108333D01*
X0230883Y0108271D01*
X0230865Y0108211D01*
X0230844Y0108152D01*
X0230819Y0108094D01*
X0230790Y0108038D01*
X0230758Y0107984D01*
X0230723Y0107932D01*
X0230685Y0107883D01*
X0230643Y0107835D01*
X0230599Y0107791D01*
X0230551Y0107749D01*
X0230502Y0107711D01*
X0230450Y0107676D01*
X0230396Y0107644D01*
X0230340Y0107615D01*
X0230282Y0107590D01*
X0230223Y0107569D01*
X0230163Y0107551D01*
X0230101Y0107538D01*
X0230039Y0107528D01*
X0229977Y0107522D01*
X0229914Y0107520D01*
X0229851Y0107522D01*
X0229789Y0107528D01*
X0229727Y0107538D01*
X0229665Y0107551D01*
X0229605Y0107569D01*
X0229546Y0107590D01*
X0229488Y0107615D01*
X0229432Y0107644D01*
X0229378Y0107676D01*
X0229326Y0107711D01*
X0229277Y0107749D01*
X0229229Y0107791D01*
X0229185Y0107835D01*
X0229143Y0107883D01*
X0229105Y0107932D01*
X0229070Y0107984D01*
X0229038Y0108038D01*
X0229009Y0108094D01*
X0228984Y0108152D01*
X0228963Y0108211D01*
X0228945Y0108271D01*
X0228932Y0108333D01*
X0228922Y0108395D01*
X0228916Y0108457D01*
X0228914Y0108520D01*
X0222914Y0108520D02*
X0222916Y0108692D01*
X0222922Y0108863D01*
X0222933Y0109035D01*
X0222948Y0109206D01*
X0222967Y0109377D01*
X0222990Y0109547D01*
X0223017Y0109717D01*
X0223049Y0109886D01*
X0223084Y0110054D01*
X0223124Y0110221D01*
X0223168Y0110387D01*
X0223215Y0110552D01*
X0223267Y0110716D01*
X0223323Y0110878D01*
X0223383Y0111039D01*
X0223447Y0111199D01*
X0223515Y0111357D01*
X0223586Y0111513D01*
X0223661Y0111667D01*
X0223741Y0111820D01*
X0223823Y0111970D01*
X0223910Y0112119D01*
X0224000Y0112265D01*
X0224094Y0112409D01*
X0224191Y0112551D01*
X0224292Y0112690D01*
X0224396Y0112827D01*
X0224503Y0112961D01*
X0224614Y0113092D01*
X0224727Y0113221D01*
X0224844Y0113347D01*
X0224964Y0113470D01*
X0225087Y0113590D01*
X0225213Y0113707D01*
X0225342Y0113820D01*
X0225473Y0113931D01*
X0225607Y0114038D01*
X0225744Y0114142D01*
X0225883Y0114243D01*
X0226025Y0114340D01*
X0226169Y0114434D01*
X0226315Y0114524D01*
X0226464Y0114611D01*
X0226614Y0114693D01*
X0226767Y0114773D01*
X0226921Y0114848D01*
X0227077Y0114919D01*
X0227235Y0114987D01*
X0227395Y0115051D01*
X0227556Y0115111D01*
X0227718Y0115167D01*
X0227882Y0115219D01*
X0228047Y0115266D01*
X0228213Y0115310D01*
X0228380Y0115350D01*
X0228548Y0115385D01*
X0228717Y0115417D01*
X0228887Y0115444D01*
X0229057Y0115467D01*
X0229228Y0115486D01*
X0229399Y0115501D01*
X0229571Y0115512D01*
X0229742Y0115518D01*
X0229914Y0115520D01*
X0230086Y0115518D01*
X0230257Y0115512D01*
X0230429Y0115501D01*
X0230600Y0115486D01*
X0230771Y0115467D01*
X0230941Y0115444D01*
X0231111Y0115417D01*
X0231280Y0115385D01*
X0231448Y0115350D01*
X0231615Y0115310D01*
X0231781Y0115266D01*
X0231946Y0115219D01*
X0232110Y0115167D01*
X0232272Y0115111D01*
X0232433Y0115051D01*
X0232593Y0114987D01*
X0232751Y0114919D01*
X0232907Y0114848D01*
X0233061Y0114773D01*
X0233214Y0114693D01*
X0233364Y0114611D01*
X0233513Y0114524D01*
X0233659Y0114434D01*
X0233803Y0114340D01*
X0233945Y0114243D01*
X0234084Y0114142D01*
X0234221Y0114038D01*
X0234355Y0113931D01*
X0234486Y0113820D01*
X0234615Y0113707D01*
X0234741Y0113590D01*
X0234864Y0113470D01*
X0234984Y0113347D01*
X0235101Y0113221D01*
X0235214Y0113092D01*
X0235325Y0112961D01*
X0235432Y0112827D01*
X0235536Y0112690D01*
X0235637Y0112551D01*
X0235734Y0112409D01*
X0235828Y0112265D01*
X0235918Y0112119D01*
X0236005Y0111970D01*
X0236087Y0111820D01*
X0236167Y0111667D01*
X0236242Y0111513D01*
X0236313Y0111357D01*
X0236381Y0111199D01*
X0236445Y0111039D01*
X0236505Y0110878D01*
X0236561Y0110716D01*
X0236613Y0110552D01*
X0236660Y0110387D01*
X0236704Y0110221D01*
X0236744Y0110054D01*
X0236779Y0109886D01*
X0236811Y0109717D01*
X0236838Y0109547D01*
X0236861Y0109377D01*
X0236880Y0109206D01*
X0236895Y0109035D01*
X0236906Y0108863D01*
X0236912Y0108692D01*
X0236914Y0108520D01*
X0236912Y0108348D01*
X0236906Y0108177D01*
X0236895Y0108005D01*
X0236880Y0107834D01*
X0236861Y0107663D01*
X0236838Y0107493D01*
X0236811Y0107323D01*
X0236779Y0107154D01*
X0236744Y0106986D01*
X0236704Y0106819D01*
X0236660Y0106653D01*
X0236613Y0106488D01*
X0236561Y0106324D01*
X0236505Y0106162D01*
X0236445Y0106001D01*
X0236381Y0105841D01*
X0236313Y0105683D01*
X0236242Y0105527D01*
X0236167Y0105373D01*
X0236087Y0105220D01*
X0236005Y0105070D01*
X0235918Y0104921D01*
X0235828Y0104775D01*
X0235734Y0104631D01*
X0235637Y0104489D01*
X0235536Y0104350D01*
X0235432Y0104213D01*
X0235325Y0104079D01*
X0235214Y0103948D01*
X0235101Y0103819D01*
X0234984Y0103693D01*
X0234864Y0103570D01*
X0234741Y0103450D01*
X0234615Y0103333D01*
X0234486Y0103220D01*
X0234355Y0103109D01*
X0234221Y0103002D01*
X0234084Y0102898D01*
X0233945Y0102797D01*
X0233803Y0102700D01*
X0233659Y0102606D01*
X0233513Y0102516D01*
X0233364Y0102429D01*
X0233214Y0102347D01*
X0233061Y0102267D01*
X0232907Y0102192D01*
X0232751Y0102121D01*
X0232593Y0102053D01*
X0232433Y0101989D01*
X0232272Y0101929D01*
X0232110Y0101873D01*
X0231946Y0101821D01*
X0231781Y0101774D01*
X0231615Y0101730D01*
X0231448Y0101690D01*
X0231280Y0101655D01*
X0231111Y0101623D01*
X0230941Y0101596D01*
X0230771Y0101573D01*
X0230600Y0101554D01*
X0230429Y0101539D01*
X0230257Y0101528D01*
X0230086Y0101522D01*
X0229914Y0101520D01*
X0229742Y0101522D01*
X0229571Y0101528D01*
X0229399Y0101539D01*
X0229228Y0101554D01*
X0229057Y0101573D01*
X0228887Y0101596D01*
X0228717Y0101623D01*
X0228548Y0101655D01*
X0228380Y0101690D01*
X0228213Y0101730D01*
X0228047Y0101774D01*
X0227882Y0101821D01*
X0227718Y0101873D01*
X0227556Y0101929D01*
X0227395Y0101989D01*
X0227235Y0102053D01*
X0227077Y0102121D01*
X0226921Y0102192D01*
X0226767Y0102267D01*
X0226614Y0102347D01*
X0226464Y0102429D01*
X0226315Y0102516D01*
X0226169Y0102606D01*
X0226025Y0102700D01*
X0225883Y0102797D01*
X0225744Y0102898D01*
X0225607Y0103002D01*
X0225473Y0103109D01*
X0225342Y0103220D01*
X0225213Y0103333D01*
X0225087Y0103450D01*
X0224964Y0103570D01*
X0224844Y0103693D01*
X0224727Y0103819D01*
X0224614Y0103948D01*
X0224503Y0104079D01*
X0224396Y0104213D01*
X0224292Y0104350D01*
X0224191Y0104489D01*
X0224094Y0104631D01*
X0224000Y0104775D01*
X0223910Y0104921D01*
X0223823Y0105070D01*
X0223741Y0105220D01*
X0223661Y0105373D01*
X0223586Y0105527D01*
X0223515Y0105683D01*
X0223447Y0105841D01*
X0223383Y0106001D01*
X0223323Y0106162D01*
X0223267Y0106324D01*
X0223215Y0106488D01*
X0223168Y0106653D01*
X0223124Y0106819D01*
X0223084Y0106986D01*
X0223049Y0107154D01*
X0223017Y0107323D01*
X0222990Y0107493D01*
X0222967Y0107663D01*
X0222948Y0107834D01*
X0222933Y0108005D01*
X0222922Y0108177D01*
X0222916Y0108348D01*
X0222914Y0108520D01*
X0201918Y0090016D02*
X0201918Y0087516D01*
X0180918Y0087516D01*
X0175918Y0087516D02*
X0154918Y0087516D01*
X0154918Y0090016D01*
X0143339Y0078618D02*
X0143339Y0073618D01*
X0140839Y0071118D01*
X0135839Y0071118D01*
X0133339Y0073618D01*
X0133339Y0078618D01*
X0135839Y0081118D01*
X0140839Y0081118D01*
X0143339Y0078618D01*
X0140800Y0061433D02*
X0135800Y0061433D01*
X0133300Y0058933D01*
X0133300Y0053933D01*
X0135800Y0051433D01*
X0140800Y0051433D01*
X0143300Y0053933D01*
X0143300Y0058933D01*
X0140800Y0061433D01*
X0163618Y0051516D02*
X0175918Y0051516D01*
X0178418Y0054016D02*
X0178418Y0080016D01*
X0180918Y0082516D02*
X0175918Y0092516D01*
X0180918Y0092516D01*
X0178418Y0095016D02*
X0178418Y0099016D01*
X0217158Y0058087D02*
X0217161Y0058332D01*
X0217170Y0058578D01*
X0217185Y0058823D01*
X0217206Y0059067D01*
X0217233Y0059311D01*
X0217266Y0059554D01*
X0217305Y0059797D01*
X0217350Y0060038D01*
X0217401Y0060278D01*
X0217458Y0060517D01*
X0217520Y0060754D01*
X0217589Y0060990D01*
X0217663Y0061224D01*
X0217743Y0061456D01*
X0217828Y0061686D01*
X0217919Y0061914D01*
X0218016Y0062139D01*
X0218118Y0062363D01*
X0218226Y0062583D01*
X0218339Y0062801D01*
X0218457Y0063016D01*
X0218581Y0063228D01*
X0218709Y0063437D01*
X0218843Y0063643D01*
X0218982Y0063845D01*
X0219126Y0064044D01*
X0219275Y0064239D01*
X0219428Y0064431D01*
X0219586Y0064619D01*
X0219748Y0064803D01*
X0219916Y0064982D01*
X0220087Y0065158D01*
X0220263Y0065329D01*
X0220442Y0065497D01*
X0220626Y0065659D01*
X0220814Y0065817D01*
X0221006Y0065970D01*
X0221201Y0066119D01*
X0221400Y0066263D01*
X0221602Y0066402D01*
X0221808Y0066536D01*
X0222017Y0066664D01*
X0222229Y0066788D01*
X0222444Y0066906D01*
X0222662Y0067019D01*
X0222882Y0067127D01*
X0223106Y0067229D01*
X0223331Y0067326D01*
X0223559Y0067417D01*
X0223789Y0067502D01*
X0224021Y0067582D01*
X0224255Y0067656D01*
X0224491Y0067725D01*
X0224728Y0067787D01*
X0224967Y0067844D01*
X0225207Y0067895D01*
X0225448Y0067940D01*
X0225691Y0067979D01*
X0225934Y0068012D01*
X0226178Y0068039D01*
X0226422Y0068060D01*
X0226667Y0068075D01*
X0226913Y0068084D01*
X0227158Y0068087D01*
X0227403Y0068084D01*
X0227649Y0068075D01*
X0227894Y0068060D01*
X0228138Y0068039D01*
X0228382Y0068012D01*
X0228625Y0067979D01*
X0228868Y0067940D01*
X0229109Y0067895D01*
X0229349Y0067844D01*
X0229588Y0067787D01*
X0229825Y0067725D01*
X0230061Y0067656D01*
X0230295Y0067582D01*
X0230527Y0067502D01*
X0230757Y0067417D01*
X0230985Y0067326D01*
X0231210Y0067229D01*
X0231434Y0067127D01*
X0231654Y0067019D01*
X0231872Y0066906D01*
X0232087Y0066788D01*
X0232299Y0066664D01*
X0232508Y0066536D01*
X0232714Y0066402D01*
X0232916Y0066263D01*
X0233115Y0066119D01*
X0233310Y0065970D01*
X0233502Y0065817D01*
X0233690Y0065659D01*
X0233874Y0065497D01*
X0234053Y0065329D01*
X0234229Y0065158D01*
X0234400Y0064982D01*
X0234568Y0064803D01*
X0234730Y0064619D01*
X0234888Y0064431D01*
X0235041Y0064239D01*
X0235190Y0064044D01*
X0235334Y0063845D01*
X0235473Y0063643D01*
X0235607Y0063437D01*
X0235735Y0063228D01*
X0235859Y0063016D01*
X0235977Y0062801D01*
X0236090Y0062583D01*
X0236198Y0062363D01*
X0236300Y0062139D01*
X0236397Y0061914D01*
X0236488Y0061686D01*
X0236573Y0061456D01*
X0236653Y0061224D01*
X0236727Y0060990D01*
X0236796Y0060754D01*
X0236858Y0060517D01*
X0236915Y0060278D01*
X0236966Y0060038D01*
X0237011Y0059797D01*
X0237050Y0059554D01*
X0237083Y0059311D01*
X0237110Y0059067D01*
X0237131Y0058823D01*
X0237146Y0058578D01*
X0237155Y0058332D01*
X0237158Y0058087D01*
X0237155Y0057842D01*
X0237146Y0057596D01*
X0237131Y0057351D01*
X0237110Y0057107D01*
X0237083Y0056863D01*
X0237050Y0056620D01*
X0237011Y0056377D01*
X0236966Y0056136D01*
X0236915Y0055896D01*
X0236858Y0055657D01*
X0236796Y0055420D01*
X0236727Y0055184D01*
X0236653Y0054950D01*
X0236573Y0054718D01*
X0236488Y0054488D01*
X0236397Y0054260D01*
X0236300Y0054035D01*
X0236198Y0053811D01*
X0236090Y0053591D01*
X0235977Y0053373D01*
X0235859Y0053158D01*
X0235735Y0052946D01*
X0235607Y0052737D01*
X0235473Y0052531D01*
X0235334Y0052329D01*
X0235190Y0052130D01*
X0235041Y0051935D01*
X0234888Y0051743D01*
X0234730Y0051555D01*
X0234568Y0051371D01*
X0234400Y0051192D01*
X0234229Y0051016D01*
X0234053Y0050845D01*
X0233874Y0050677D01*
X0233690Y0050515D01*
X0233502Y0050357D01*
X0233310Y0050204D01*
X0233115Y0050055D01*
X0232916Y0049911D01*
X0232714Y0049772D01*
X0232508Y0049638D01*
X0232299Y0049510D01*
X0232087Y0049386D01*
X0231872Y0049268D01*
X0231654Y0049155D01*
X0231434Y0049047D01*
X0231210Y0048945D01*
X0230985Y0048848D01*
X0230757Y0048757D01*
X0230527Y0048672D01*
X0230295Y0048592D01*
X0230061Y0048518D01*
X0229825Y0048449D01*
X0229588Y0048387D01*
X0229349Y0048330D01*
X0229109Y0048279D01*
X0228868Y0048234D01*
X0228625Y0048195D01*
X0228382Y0048162D01*
X0228138Y0048135D01*
X0227894Y0048114D01*
X0227649Y0048099D01*
X0227403Y0048090D01*
X0227158Y0048087D01*
X0226913Y0048090D01*
X0226667Y0048099D01*
X0226422Y0048114D01*
X0226178Y0048135D01*
X0225934Y0048162D01*
X0225691Y0048195D01*
X0225448Y0048234D01*
X0225207Y0048279D01*
X0224967Y0048330D01*
X0224728Y0048387D01*
X0224491Y0048449D01*
X0224255Y0048518D01*
X0224021Y0048592D01*
X0223789Y0048672D01*
X0223559Y0048757D01*
X0223331Y0048848D01*
X0223106Y0048945D01*
X0222882Y0049047D01*
X0222662Y0049155D01*
X0222444Y0049268D01*
X0222229Y0049386D01*
X0222017Y0049510D01*
X0221808Y0049638D01*
X0221602Y0049772D01*
X0221400Y0049911D01*
X0221201Y0050055D01*
X0221006Y0050204D01*
X0220814Y0050357D01*
X0220626Y0050515D01*
X0220442Y0050677D01*
X0220263Y0050845D01*
X0220087Y0051016D01*
X0219916Y0051192D01*
X0219748Y0051371D01*
X0219586Y0051555D01*
X0219428Y0051743D01*
X0219275Y0051935D01*
X0219126Y0052130D01*
X0218982Y0052329D01*
X0218843Y0052531D01*
X0218709Y0052737D01*
X0218581Y0052946D01*
X0218457Y0053158D01*
X0218339Y0053373D01*
X0218226Y0053591D01*
X0218118Y0053811D01*
X0218016Y0054035D01*
X0217919Y0054260D01*
X0217828Y0054488D01*
X0217743Y0054718D01*
X0217663Y0054950D01*
X0217589Y0055184D01*
X0217520Y0055420D01*
X0217458Y0055657D01*
X0217401Y0055896D01*
X0217350Y0056136D01*
X0217305Y0056377D01*
X0217266Y0056620D01*
X0217233Y0056863D01*
X0217206Y0057107D01*
X0217185Y0057351D01*
X0217170Y0057596D01*
X0217161Y0057842D01*
X0217158Y0058087D01*
X0231658Y0053087D02*
X0232658Y0053087D01*
X0232658Y0052087D01*
X0232658Y0053087D02*
X0232658Y0054087D01*
X0232658Y0053087D02*
X0233658Y0053087D01*
X0248693Y0046177D02*
X0248693Y0041177D01*
X0251193Y0038677D01*
X0248693Y0036177D01*
X0248693Y0031177D01*
X0251193Y0028677D01*
X0256193Y0028677D01*
X0258693Y0031177D01*
X0258693Y0036177D01*
X0256193Y0038677D01*
X0251193Y0038677D01*
X0256193Y0038677D02*
X0258693Y0041177D01*
X0258693Y0046177D01*
X0256193Y0048677D01*
X0251193Y0048677D01*
X0248693Y0046177D01*
X0235520Y0040953D02*
X0232520Y0040953D01*
X0234020Y0042453D02*
X0234020Y0039453D01*
X0213520Y0028953D02*
X0213525Y0029346D01*
X0213539Y0029738D01*
X0213563Y0030130D01*
X0213597Y0030521D01*
X0213640Y0030912D01*
X0213693Y0031301D01*
X0213756Y0031688D01*
X0213827Y0032074D01*
X0213909Y0032459D01*
X0213999Y0032841D01*
X0214100Y0033220D01*
X0214209Y0033598D01*
X0214328Y0033972D01*
X0214455Y0034343D01*
X0214592Y0034711D01*
X0214738Y0035076D01*
X0214893Y0035437D01*
X0215056Y0035794D01*
X0215228Y0036147D01*
X0215409Y0036495D01*
X0215599Y0036839D01*
X0215796Y0037179D01*
X0216002Y0037513D01*
X0216216Y0037842D01*
X0216439Y0038166D01*
X0216669Y0038484D01*
X0216906Y0038797D01*
X0217152Y0039103D01*
X0217405Y0039404D01*
X0217665Y0039698D01*
X0217932Y0039986D01*
X0218206Y0040267D01*
X0218487Y0040541D01*
X0218775Y0040808D01*
X0219069Y0041068D01*
X0219370Y0041321D01*
X0219676Y0041567D01*
X0219989Y0041804D01*
X0220307Y0042034D01*
X0220631Y0042257D01*
X0220960Y0042471D01*
X0221294Y0042677D01*
X0221634Y0042874D01*
X0221978Y0043064D01*
X0222326Y0043245D01*
X0222679Y0043417D01*
X0223036Y0043580D01*
X0223397Y0043735D01*
X0223762Y0043881D01*
X0224130Y0044018D01*
X0224501Y0044145D01*
X0224875Y0044264D01*
X0225253Y0044373D01*
X0225632Y0044474D01*
X0226014Y0044564D01*
X0226399Y0044646D01*
X0226785Y0044717D01*
X0227172Y0044780D01*
X0227561Y0044833D01*
X0227952Y0044876D01*
X0228343Y0044910D01*
X0228735Y0044934D01*
X0229127Y0044948D01*
X0229520Y0044953D01*
X0229913Y0044948D01*
X0230305Y0044934D01*
X0230697Y0044910D01*
X0231088Y0044876D01*
X0231479Y0044833D01*
X0231868Y0044780D01*
X0232255Y0044717D01*
X0232641Y0044646D01*
X0233026Y0044564D01*
X0233408Y0044474D01*
X0233787Y0044373D01*
X0234165Y0044264D01*
X0234539Y0044145D01*
X0234910Y0044018D01*
X0235278Y0043881D01*
X0235643Y0043735D01*
X0236004Y0043580D01*
X0236361Y0043417D01*
X0236714Y0043245D01*
X0237062Y0043064D01*
X0237406Y0042874D01*
X0237746Y0042677D01*
X0238080Y0042471D01*
X0238409Y0042257D01*
X0238733Y0042034D01*
X0239051Y0041804D01*
X0239364Y0041567D01*
X0239670Y0041321D01*
X0239971Y0041068D01*
X0240265Y0040808D01*
X0240553Y0040541D01*
X0240834Y0040267D01*
X0241108Y0039986D01*
X0241375Y0039698D01*
X0241635Y0039404D01*
X0241888Y0039103D01*
X0242134Y0038797D01*
X0242371Y0038484D01*
X0242601Y0038166D01*
X0242824Y0037842D01*
X0243038Y0037513D01*
X0243244Y0037179D01*
X0243441Y0036839D01*
X0243631Y0036495D01*
X0243812Y0036147D01*
X0243984Y0035794D01*
X0244147Y0035437D01*
X0244302Y0035076D01*
X0244448Y0034711D01*
X0244585Y0034343D01*
X0244712Y0033972D01*
X0244831Y0033598D01*
X0244940Y0033220D01*
X0245041Y0032841D01*
X0245131Y0032459D01*
X0245213Y0032074D01*
X0245284Y0031688D01*
X0245347Y0031301D01*
X0245400Y0030912D01*
X0245443Y0030521D01*
X0245477Y0030130D01*
X0245501Y0029738D01*
X0245515Y0029346D01*
X0245520Y0028953D01*
X0245515Y0028560D01*
X0245501Y0028168D01*
X0245477Y0027776D01*
X0245443Y0027385D01*
X0245400Y0026994D01*
X0245347Y0026605D01*
X0245284Y0026218D01*
X0245213Y0025832D01*
X0245131Y0025447D01*
X0245041Y0025065D01*
X0244940Y0024686D01*
X0244831Y0024308D01*
X0244712Y0023934D01*
X0244585Y0023563D01*
X0244448Y0023195D01*
X0244302Y0022830D01*
X0244147Y0022469D01*
X0243984Y0022112D01*
X0243812Y0021759D01*
X0243631Y0021411D01*
X0243441Y0021067D01*
X0243244Y0020727D01*
X0243038Y0020393D01*
X0242824Y0020064D01*
X0242601Y0019740D01*
X0242371Y0019422D01*
X0242134Y0019109D01*
X0241888Y0018803D01*
X0241635Y0018502D01*
X0241375Y0018208D01*
X0241108Y0017920D01*
X0240834Y0017639D01*
X0240553Y0017365D01*
X0240265Y0017098D01*
X0239971Y0016838D01*
X0239670Y0016585D01*
X0239364Y0016339D01*
X0239051Y0016102D01*
X0238733Y0015872D01*
X0238409Y0015649D01*
X0238080Y0015435D01*
X0237746Y0015229D01*
X0237406Y0015032D01*
X0237062Y0014842D01*
X0236714Y0014661D01*
X0236361Y0014489D01*
X0236004Y0014326D01*
X0235643Y0014171D01*
X0235278Y0014025D01*
X0234910Y0013888D01*
X0234539Y0013761D01*
X0234165Y0013642D01*
X0233787Y0013533D01*
X0233408Y0013432D01*
X0233026Y0013342D01*
X0232641Y0013260D01*
X0232255Y0013189D01*
X0231868Y0013126D01*
X0231479Y0013073D01*
X0231088Y0013030D01*
X0230697Y0012996D01*
X0230305Y0012972D01*
X0229913Y0012958D01*
X0229520Y0012953D01*
X0229127Y0012958D01*
X0228735Y0012972D01*
X0228343Y0012996D01*
X0227952Y0013030D01*
X0227561Y0013073D01*
X0227172Y0013126D01*
X0226785Y0013189D01*
X0226399Y0013260D01*
X0226014Y0013342D01*
X0225632Y0013432D01*
X0225253Y0013533D01*
X0224875Y0013642D01*
X0224501Y0013761D01*
X0224130Y0013888D01*
X0223762Y0014025D01*
X0223397Y0014171D01*
X0223036Y0014326D01*
X0222679Y0014489D01*
X0222326Y0014661D01*
X0221978Y0014842D01*
X0221634Y0015032D01*
X0221294Y0015229D01*
X0220960Y0015435D01*
X0220631Y0015649D01*
X0220307Y0015872D01*
X0219989Y0016102D01*
X0219676Y0016339D01*
X0219370Y0016585D01*
X0219069Y0016838D01*
X0218775Y0017098D01*
X0218487Y0017365D01*
X0218206Y0017639D01*
X0217932Y0017920D01*
X0217665Y0018208D01*
X0217405Y0018502D01*
X0217152Y0018803D01*
X0216906Y0019109D01*
X0216669Y0019422D01*
X0216439Y0019740D01*
X0216216Y0020064D01*
X0216002Y0020393D01*
X0215796Y0020727D01*
X0215599Y0021067D01*
X0215409Y0021411D01*
X0215228Y0021759D01*
X0215056Y0022112D01*
X0214893Y0022469D01*
X0214738Y0022830D01*
X0214592Y0023195D01*
X0214455Y0023563D01*
X0214328Y0023934D01*
X0214209Y0024308D01*
X0214100Y0024686D01*
X0213999Y0025065D01*
X0213909Y0025447D01*
X0213827Y0025832D01*
X0213756Y0026218D01*
X0213693Y0026605D01*
X0213640Y0026994D01*
X0213597Y0027385D01*
X0213563Y0027776D01*
X0213539Y0028168D01*
X0213525Y0028560D01*
X0213520Y0028953D01*
X0193118Y0051516D02*
X0180918Y0051516D01*
X0253654Y0098500D02*
X0256154Y0096000D01*
X0261154Y0096000D01*
X0263654Y0098500D01*
X0263654Y0103500D01*
X0261154Y0106000D01*
X0256154Y0106000D01*
X0253654Y0103500D01*
X0253654Y0098500D01*
X0256154Y0120803D02*
X0261154Y0120803D01*
X0263654Y0123303D01*
X0263654Y0128303D01*
X0261154Y0130803D01*
X0256154Y0130803D01*
X0253654Y0128303D01*
X0253654Y0123303D01*
X0256154Y0120803D01*
D12*
X0255856Y0112954D02*
X0255856Y0109201D01*
X0255105Y0108450D01*
X0254355Y0108450D01*
X0253604Y0109201D01*
X0255105Y0112954D02*
X0256607Y0112954D01*
X0258208Y0112954D02*
X0260460Y0112954D01*
X0261211Y0112203D01*
X0261211Y0110702D01*
X0260460Y0109951D01*
X0258208Y0109951D01*
X0258208Y0108450D02*
X0258208Y0112954D01*
X0262812Y0112954D02*
X0262812Y0110702D01*
X0264313Y0111453D01*
X0265064Y0111453D01*
X0265814Y0110702D01*
X0265814Y0109201D01*
X0265064Y0108450D01*
X0263563Y0108450D01*
X0262812Y0109201D01*
X0262812Y0112954D02*
X0265814Y0112954D01*
X0265814Y0133253D02*
X0262812Y0133253D01*
X0264313Y0133253D02*
X0264313Y0137757D01*
X0262812Y0136256D01*
X0261211Y0137006D02*
X0261211Y0135505D01*
X0260460Y0134754D01*
X0258208Y0134754D01*
X0258208Y0133253D02*
X0258208Y0137757D01*
X0260460Y0137757D01*
X0261211Y0137006D01*
X0256607Y0137757D02*
X0255105Y0137757D01*
X0255856Y0137757D02*
X0255856Y0134004D01*
X0255105Y0133253D01*
X0254355Y0133253D01*
X0253604Y0134004D01*
X0267416Y0134004D02*
X0270418Y0137006D01*
X0270418Y0134004D01*
X0269668Y0133253D01*
X0268166Y0133253D01*
X0267416Y0134004D01*
X0267416Y0137006D01*
X0268166Y0137757D01*
X0269668Y0137757D01*
X0270418Y0137006D01*
X0215164Y0104376D02*
X0215164Y0101374D01*
X0215164Y0102875D02*
X0210660Y0102875D01*
X0212161Y0101374D01*
X0211411Y0099772D02*
X0210660Y0099022D01*
X0210660Y0097520D01*
X0211411Y0096770D01*
X0212161Y0096770D01*
X0212912Y0097520D01*
X0212912Y0099022D01*
X0213663Y0099772D01*
X0214413Y0099772D01*
X0215164Y0099022D01*
X0215164Y0097520D01*
X0214413Y0096770D01*
X0217369Y0095035D02*
X0218119Y0095785D01*
X0219621Y0095785D01*
X0220371Y0095035D01*
X0220371Y0092032D01*
X0219621Y0091281D01*
X0218119Y0091281D01*
X0217369Y0092032D01*
X0217369Y0095035D01*
X0218870Y0092783D02*
X0220371Y0091281D01*
X0221973Y0091281D02*
X0224975Y0091281D01*
X0223474Y0091281D02*
X0223474Y0095785D01*
X0221973Y0094284D01*
X0217617Y0074560D02*
X0217721Y0074345D01*
X0217830Y0074132D01*
X0217944Y0073922D01*
X0218063Y0073715D01*
X0218186Y0073510D01*
X0218314Y0073308D01*
X0218447Y0073109D01*
X0218584Y0072914D01*
X0218725Y0072721D01*
X0218871Y0072532D01*
X0218871Y0072531D02*
X0235367Y0072531D01*
X0232646Y0078531D02*
X0231591Y0078531D01*
X0236665Y0074654D02*
X0236558Y0074429D01*
X0236446Y0074206D01*
X0236329Y0073986D01*
X0236207Y0073769D01*
X0236079Y0073554D01*
X0235946Y0073343D01*
X0235809Y0073135D01*
X0235666Y0072931D01*
X0235519Y0072729D01*
X0235367Y0072532D01*
X0236619Y0083503D02*
X0236507Y0083733D01*
X0236390Y0083960D01*
X0236268Y0084184D01*
X0236140Y0084405D01*
X0236006Y0084622D01*
X0235868Y0084837D01*
X0235724Y0085048D01*
X0235575Y0085255D01*
X0235421Y0085459D01*
X0235263Y0085659D01*
X0235099Y0085855D01*
X0234931Y0086047D01*
X0234758Y0086235D01*
X0234580Y0086419D01*
X0234399Y0086598D01*
X0234212Y0086773D01*
X0234022Y0086943D01*
X0233828Y0087108D01*
X0233629Y0087269D01*
X0233427Y0087425D01*
X0233221Y0087576D01*
X0233011Y0087722D01*
X0232798Y0087862D01*
X0232582Y0087998D01*
X0232362Y0088128D01*
X0232139Y0088253D01*
X0231914Y0088372D01*
X0231685Y0088486D01*
X0231454Y0088594D01*
X0231220Y0088697D01*
X0230984Y0088794D01*
X0230745Y0088885D01*
X0230505Y0088970D01*
X0230262Y0089050D01*
X0230017Y0089123D01*
X0229771Y0089191D01*
X0229523Y0089252D01*
X0229274Y0089307D01*
X0229024Y0089357D01*
X0228772Y0089400D01*
X0228519Y0089437D01*
X0228266Y0089468D01*
X0228012Y0089493D01*
X0227757Y0089512D01*
X0227502Y0089524D01*
X0227247Y0089530D01*
X0226991Y0089530D01*
X0226736Y0089524D01*
X0226481Y0089512D01*
X0226226Y0089493D01*
X0225972Y0089468D01*
X0225719Y0089437D01*
X0225466Y0089400D01*
X0225214Y0089357D01*
X0224964Y0089307D01*
X0224715Y0089252D01*
X0224467Y0089191D01*
X0224221Y0089123D01*
X0223976Y0089050D01*
X0223733Y0088970D01*
X0223493Y0088885D01*
X0223254Y0088794D01*
X0223018Y0088697D01*
X0222784Y0088594D01*
X0222553Y0088486D01*
X0222324Y0088372D01*
X0222099Y0088253D01*
X0221876Y0088128D01*
X0221656Y0087998D01*
X0221440Y0087862D01*
X0221227Y0087722D01*
X0221017Y0087576D01*
X0220811Y0087425D01*
X0220609Y0087269D01*
X0220410Y0087108D01*
X0220216Y0086943D01*
X0220026Y0086773D01*
X0219839Y0086598D01*
X0219658Y0086419D01*
X0219480Y0086235D01*
X0219307Y0086047D01*
X0219139Y0085855D01*
X0218975Y0085659D01*
X0218817Y0085459D01*
X0218663Y0085255D01*
X0218514Y0085048D01*
X0218370Y0084837D01*
X0218232Y0084622D01*
X0218098Y0084405D01*
X0217970Y0084184D01*
X0217848Y0083960D01*
X0217731Y0083733D01*
X0217619Y0083503D01*
X0221591Y0078531D02*
X0222646Y0078531D01*
X0215556Y0052840D02*
X0213304Y0050589D01*
X0216307Y0050589D01*
X0215556Y0052840D02*
X0215556Y0048337D01*
X0211703Y0049087D02*
X0210952Y0048337D01*
X0209451Y0048337D01*
X0208700Y0049087D01*
X0208700Y0052090D01*
X0209451Y0052840D01*
X0210952Y0052840D01*
X0211703Y0052090D01*
X0261140Y0047626D02*
X0261890Y0046124D01*
X0263392Y0044623D01*
X0263392Y0046875D01*
X0264142Y0047626D01*
X0264893Y0047626D01*
X0265643Y0046875D01*
X0265643Y0045374D01*
X0264893Y0044623D01*
X0263392Y0044623D01*
X0263392Y0043022D02*
X0264142Y0042271D01*
X0264142Y0040019D01*
X0265643Y0040019D02*
X0261140Y0040019D01*
X0261140Y0042271D01*
X0261890Y0043022D01*
X0263392Y0043022D01*
X0261140Y0038418D02*
X0261140Y0036917D01*
X0261140Y0037667D02*
X0264893Y0037667D01*
X0265643Y0036917D01*
X0265643Y0036166D01*
X0264893Y0035415D01*
X0244520Y0014601D02*
X0245270Y0013851D01*
X0245270Y0012349D01*
X0244520Y0011599D01*
X0244520Y0009997D02*
X0245270Y0009247D01*
X0245270Y0007746D01*
X0244520Y0006995D01*
X0241517Y0006995D01*
X0240766Y0007746D01*
X0240766Y0009247D01*
X0241517Y0009997D01*
X0241517Y0011599D02*
X0240766Y0012349D01*
X0240766Y0013851D01*
X0241517Y0014601D01*
X0242268Y0014601D01*
X0243018Y0013851D01*
X0243769Y0014601D01*
X0244520Y0014601D01*
X0243018Y0013851D02*
X0243018Y0013100D01*
X0144709Y0063883D02*
X0144709Y0068387D01*
X0142458Y0066135D01*
X0145460Y0066135D01*
X0140856Y0066135D02*
X0140106Y0065384D01*
X0137854Y0065384D01*
X0137854Y0063883D02*
X0137854Y0068387D01*
X0140106Y0068387D01*
X0140856Y0067636D01*
X0140856Y0066135D01*
X0136252Y0068387D02*
X0134751Y0068387D01*
X0135502Y0068387D02*
X0135502Y0064634D01*
X0134751Y0063883D01*
X0134000Y0063883D01*
X0133250Y0064634D01*
X0134040Y0083568D02*
X0134790Y0083568D01*
X0135541Y0084319D01*
X0135541Y0088072D01*
X0134790Y0088072D02*
X0136292Y0088072D01*
X0137893Y0088072D02*
X0140145Y0088072D01*
X0140896Y0087321D01*
X0140896Y0085820D01*
X0140145Y0085069D01*
X0137893Y0085069D01*
X0137893Y0083568D02*
X0137893Y0088072D01*
X0142497Y0087321D02*
X0143248Y0088072D01*
X0144749Y0088072D01*
X0145500Y0087321D01*
X0145500Y0086571D01*
X0144749Y0085820D01*
X0145500Y0085069D01*
X0145500Y0084319D01*
X0144749Y0083568D01*
X0143248Y0083568D01*
X0142497Y0084319D01*
X0143998Y0085820D02*
X0144749Y0085820D01*
X0134040Y0083568D02*
X0133289Y0084319D01*
X0116056Y0090488D02*
X0116056Y0119228D01*
X0053064Y0119228D01*
X0053064Y0090488D01*
X0039240Y0085747D02*
X0038489Y0086497D01*
X0036988Y0086497D01*
X0036237Y0085747D01*
X0034636Y0085747D02*
X0033885Y0086497D01*
X0031633Y0086497D01*
X0031633Y0081993D01*
X0031633Y0083495D02*
X0033885Y0083495D01*
X0034636Y0084245D01*
X0034636Y0085747D01*
X0036237Y0081993D02*
X0039240Y0084996D01*
X0039240Y0085747D01*
X0039240Y0081993D02*
X0036237Y0081993D01*
X0029281Y0082744D02*
X0029281Y0086497D01*
X0028531Y0086497D02*
X0030032Y0086497D01*
X0029281Y0082744D02*
X0028531Y0081993D01*
X0027780Y0081993D01*
X0027029Y0082744D01*
X0022938Y0073190D02*
X0021437Y0073190D01*
X0020686Y0072439D01*
X0020686Y0071689D01*
X0021437Y0070938D01*
X0023688Y0070938D01*
X0023688Y0069437D02*
X0023688Y0072439D01*
X0022938Y0073190D01*
X0023688Y0069437D02*
X0022938Y0068686D01*
X0021437Y0068686D01*
X0020686Y0069437D01*
X0019085Y0070938D02*
X0019085Y0072439D01*
X0018334Y0073190D01*
X0016082Y0073190D01*
X0016082Y0068686D01*
X0016082Y0070188D02*
X0018334Y0070188D01*
X0019085Y0070938D01*
X0014481Y0073190D02*
X0012979Y0073190D01*
X0013730Y0073190D02*
X0013730Y0069437D01*
X0012979Y0068686D01*
X0012229Y0068686D01*
X0011478Y0069437D01*
X0011835Y0093096D02*
X0012586Y0093096D01*
X0013336Y0093846D01*
X0013336Y0097600D01*
X0012586Y0097600D02*
X0014087Y0097600D01*
X0015688Y0097600D02*
X0017940Y0097600D01*
X0018691Y0096849D01*
X0018691Y0095348D01*
X0017940Y0094597D01*
X0015688Y0094597D01*
X0015688Y0093096D02*
X0015688Y0097600D01*
X0020292Y0096849D02*
X0020292Y0096098D01*
X0021043Y0095348D01*
X0022544Y0095348D01*
X0023295Y0094597D01*
X0023295Y0093846D01*
X0022544Y0093096D01*
X0021043Y0093096D01*
X0020292Y0093846D01*
X0020292Y0094597D01*
X0021043Y0095348D01*
X0022544Y0095348D02*
X0023295Y0096098D01*
X0023295Y0096849D01*
X0022544Y0097600D01*
X0021043Y0097600D01*
X0020292Y0096849D01*
X0027069Y0098492D02*
X0027819Y0097741D01*
X0028570Y0097741D01*
X0029321Y0098492D01*
X0029321Y0102245D01*
X0030071Y0102245D02*
X0028570Y0102245D01*
X0031673Y0102245D02*
X0033924Y0102245D01*
X0034675Y0101495D01*
X0034675Y0099993D01*
X0033924Y0099243D01*
X0031673Y0099243D01*
X0031673Y0097741D02*
X0031673Y0102245D01*
X0036276Y0100744D02*
X0037778Y0102245D01*
X0037778Y0097741D01*
X0039279Y0097741D02*
X0036276Y0097741D01*
X0011835Y0093096D02*
X0011084Y0093846D01*
X0075673Y0116037D02*
X0075673Y0120541D01*
X0077924Y0120541D01*
X0078675Y0119791D01*
X0078675Y0118289D01*
X0077924Y0117539D01*
X0075673Y0117539D01*
X0077174Y0117539D02*
X0078675Y0116037D01*
X0080277Y0116037D02*
X0083279Y0119040D01*
X0083279Y0119791D01*
X0082528Y0120541D01*
X0081027Y0120541D01*
X0080277Y0119791D01*
X0080277Y0116037D02*
X0083279Y0116037D01*
X0114699Y0133116D02*
X0114699Y0137620D01*
X0116951Y0137620D01*
X0117702Y0136869D01*
X0117702Y0135368D01*
X0116951Y0134617D01*
X0114699Y0134617D01*
X0116201Y0134617D02*
X0117702Y0133116D01*
X0119303Y0133116D02*
X0122306Y0133116D01*
X0120805Y0133116D02*
X0120805Y0137620D01*
X0119303Y0136119D01*
X0170180Y0137604D02*
X0170180Y0133100D01*
X0172432Y0133100D01*
X0173182Y0133851D01*
X0173182Y0136854D01*
X0172432Y0137604D01*
X0170180Y0137604D01*
X0174784Y0136103D02*
X0176285Y0137604D01*
X0176285Y0133100D01*
X0174784Y0133100D02*
X0177786Y0133100D01*
X0116056Y0024740D02*
X0053064Y0024740D01*
D13*
X0172430Y0127850D03*
D14*
X0168680Y0127850D03*
X0189180Y0127850D03*
D15*
X0035768Y0121756D02*
X0009965Y0121756D01*
X0009965Y0135756D01*
X0035768Y0135756D01*
X0035768Y0121756D01*
D16*
X0031965Y0116555D03*
X0022867Y0116555D03*
X0013768Y0116555D03*
D17*
X0022867Y0140957D03*
D18*
X0007467Y0134698D02*
X0007467Y0131629D01*
X0007467Y0133164D02*
X0002863Y0133164D01*
X0004397Y0131629D01*
X0003630Y0130094D02*
X0002863Y0129327D01*
X0002863Y0127792D01*
X0003630Y0127025D01*
X0006699Y0127025D01*
X0007467Y0127792D01*
X0007467Y0129327D01*
X0006699Y0130094D01*
X0007467Y0125491D02*
X0007467Y0123956D01*
X0007467Y0124723D02*
X0002863Y0124723D01*
X0002863Y0123956D02*
X0002863Y0125491D01*
X0054838Y0123839D02*
X0055706Y0122972D01*
X0057441Y0122972D01*
X0058308Y0123839D01*
X0058308Y0128176D01*
X0059995Y0126441D02*
X0061730Y0128176D01*
X0061730Y0122972D01*
X0063464Y0122972D02*
X0059995Y0122972D01*
X0054838Y0123839D02*
X0054838Y0128176D01*
X0064528Y0080538D02*
X0064528Y0075334D01*
X0067997Y0075334D01*
X0069684Y0076201D02*
X0070551Y0075334D01*
X0072286Y0075334D01*
X0073154Y0076201D01*
X0073154Y0077069D01*
X0072286Y0077936D01*
X0070551Y0077936D01*
X0069684Y0078803D01*
X0069684Y0079671D01*
X0070551Y0080538D01*
X0072286Y0080538D01*
X0073154Y0079671D01*
X0074840Y0080538D02*
X0077443Y0080538D01*
X0078310Y0079671D01*
X0078310Y0077936D01*
X0077443Y0077069D01*
X0074840Y0077069D01*
X0074840Y0075334D02*
X0074840Y0080538D01*
X0067997Y0080538D02*
X0064528Y0080538D01*
X0064528Y0077936D02*
X0066262Y0077936D01*
X0085153Y0077936D02*
X0088623Y0077936D01*
X0095466Y0078803D02*
X0097201Y0080538D01*
X0097201Y0075334D01*
X0095466Y0075334D02*
X0098936Y0075334D01*
X0100622Y0075334D02*
X0104092Y0078803D01*
X0104092Y0079671D01*
X0103225Y0080538D01*
X0101490Y0080538D01*
X0100622Y0079671D01*
X0100622Y0075334D02*
X0104092Y0075334D01*
D19*
X0175918Y0082516D02*
X0175918Y0087516D01*
X0175918Y0092516D01*
X0180918Y0092516D02*
X0180918Y0087516D01*
X0180918Y0082516D01*
X0175918Y0082516D01*
X0178418Y0054016D02*
X0180918Y0051516D01*
X0182118Y0050216D01*
D20*
X0154815Y0026171D02*
X0154815Y0019866D01*
X0152713Y0019866D02*
X0156917Y0019866D01*
X0152713Y0024069D02*
X0154815Y0026171D01*
X0150471Y0026171D02*
X0146268Y0021968D01*
X0147319Y0023018D02*
X0150471Y0019866D01*
X0146268Y0019866D02*
X0146268Y0026171D01*
D21*
X0140649Y0126866D03*
X0112249Y0126866D03*
X0086830Y0126787D03*
X0058430Y0126787D03*
D22*
X0052630Y0126787D02*
X0052001Y0126157D01*
X0052001Y0086433D01*
X0052276Y0086157D01*
X0065662Y0094425D02*
X0065662Y0096787D01*
X0065662Y0097181D02*
X0065662Y0116472D01*
X0069205Y0116472D01*
X0069205Y0101906D01*
X0073142Y0101906D01*
X0073142Y0116079D01*
X0077867Y0116079D01*
X0077867Y0101906D01*
X0082591Y0101906D01*
X0082591Y0116079D01*
X0086922Y0116079D01*
X0086922Y0102299D01*
X0091252Y0102299D01*
X0091252Y0116079D01*
X0107001Y0116079D01*
X0117315Y0109661D02*
X0062591Y0054937D01*
X0052552Y0054937D01*
X0052276Y0054661D01*
X0042119Y0067535D02*
X0044875Y0070291D01*
X0052158Y0070291D01*
X0052276Y0070409D01*
X0052394Y0070291D01*
X0063378Y0070291D01*
X0092630Y0099543D01*
X0133851Y0140764D01*
X0231489Y0140764D01*
X0250780Y0121472D01*
X0250780Y0085646D01*
X0243300Y0078165D01*
X0243300Y0072260D01*
X0232158Y0061118D01*
X0232158Y0058087D01*
X0249205Y0070685D02*
X0254717Y0070685D01*
X0265741Y0059661D01*
X0265741Y0026984D01*
X0253142Y0014386D01*
X0252749Y0014386D01*
X0249993Y0011630D01*
X0113772Y0011630D01*
X0100780Y0024622D01*
X0100780Y0057693D01*
X0105623Y0062535D01*
X0116843Y0062535D01*
X0116725Y0070291D02*
X0116843Y0070409D01*
X0116725Y0070291D02*
X0103142Y0070291D01*
X0098812Y0074622D01*
X0098812Y0085252D01*
X0111016Y0097457D01*
X0124796Y0097457D01*
X0131882Y0104543D01*
X0131882Y0116354D01*
X0123221Y0119110D02*
X0123221Y0110055D01*
X0123615Y0109661D01*
X0117315Y0109661D01*
X0123221Y0119110D02*
X0139756Y0135646D01*
X0207867Y0135646D01*
X0211410Y0132102D01*
X0211410Y0127772D01*
X0197237Y0119110D02*
X0155898Y0119110D01*
X0118103Y0138795D02*
X0047630Y0138795D01*
X0031965Y0123130D01*
X0031965Y0116555D01*
X0022867Y0116555D02*
X0022867Y0109622D01*
X0026764Y0105724D01*
X0033457Y0105724D01*
X0046056Y0118323D01*
X0046056Y0130528D01*
X0050386Y0134858D01*
X0084560Y0134858D01*
X0092630Y0126787D01*
X0092630Y0099543D01*
X0091252Y0094425D02*
X0065662Y0094425D01*
X0042119Y0067535D02*
X0042119Y0035646D01*
X0046725Y0031039D01*
X0052276Y0031039D01*
X0116843Y0031039D02*
X0129638Y0031039D01*
X0138575Y0039976D01*
X0138575Y0040764D01*
X0149993Y0029346D01*
X0222127Y0029346D01*
X0229520Y0021953D01*
X0138575Y0040764D02*
X0138575Y0057339D01*
X0138300Y0056433D01*
X0197237Y0119110D02*
X0206686Y0109661D01*
X0213378Y0109661D01*
X0266922Y0115567D02*
X0268497Y0117142D01*
X0268497Y0132890D01*
X0256686Y0144701D01*
X0047237Y0144701D01*
X0029520Y0126984D01*
X0020465Y0126984D01*
X0013768Y0120287D01*
X0013768Y0116555D01*
D23*
X0052276Y0086157D03*
X0052276Y0078283D03*
X0052276Y0070409D03*
X0052276Y0062535D03*
X0052276Y0054661D03*
X0052276Y0046787D03*
X0052276Y0038913D03*
X0052276Y0031039D03*
X0116843Y0031039D03*
X0116843Y0038913D03*
X0116843Y0046787D03*
X0116843Y0054661D03*
X0116843Y0062535D03*
X0116843Y0070409D03*
X0116843Y0078283D03*
X0116843Y0086157D03*
D24*
X0217914Y0103520D02*
X0218914Y0103520D01*
X0218914Y0113520D01*
X0217914Y0113520D01*
X0240914Y0113020D02*
X0240914Y0103520D01*
X0241914Y0103520D01*
X0241914Y0113020D02*
X0240914Y0113020D01*
M02*
